<svg width="315" height="80" viewBox="0 0 315 80" fill="none" xmlns="http://www.w3.org/2000/svg">
<g clip-path="url(#clip0_83_12)">
<path d="M31.6722 39.206C35.6127 39.206 38.6083 39.9517 40.6589 41.4495C42.7095 42.9472 43.7381 45.2036 43.7381 48.2249C43.7381 49.9026 43.4809 51.4133 42.9667 52.7568C42.4524 54.1067 41.636 55.2381 40.5175 56.1574C39.3925 57.0766 37.959 57.7837 36.217 58.2787C34.4685 58.7737 32.3793 59.018 29.943 59.018H0L6.38972 50.539H30.7143C31.8972 50.539 32.765 50.3526 33.3114 49.9734C33.8578 49.5941 34.1278 48.977 34.1278 48.1284C34.1278 47.2799 33.8578 46.6692 33.3114 46.3028C32.765 45.9428 31.9036 45.7628 30.7143 45.7628H13.2166C11.1338 45.7628 9.3403 45.5314 7.83608 45.075C6.33186 44.6122 5.07835 43.9758 4.08839 43.1529C3.09201 42.3301 2.35918 41.3402 1.87706 40.1702C1.39494 39.0003 1.15709 37.7146 1.15709 36.3004C1.15709 34.7576 1.42065 33.3498 1.94777 32.0899C2.47489 30.8235 3.29128 29.75 4.39695 28.8629C5.50261 27.9758 6.92969 27.2879 8.67176 26.793C10.4203 26.298 12.5094 26.0537 14.9458 26.0537H42.8702L36.4805 34.629H14.1808C13.0301 34.629 12.1687 34.7962 11.6095 35.124C11.0502 35.4519 10.7674 36.0433 10.7674 36.8982C10.7674 37.7532 11.0502 38.351 11.6095 38.6981C12.1687 39.0453 13.0301 39.2124 14.1808 39.2124H31.6786L31.6722 39.206Z" fill="white"/>
<path d="M85.2133 26.0474L78.7722 34.6227H67.2848V59.018H57.3339V34.6227H42.2402L48.6814 26.0474H85.2069H85.2133Z" fill="white"/>
<path d="M91.7058 59.0181L97.7162 50.5391H108.792C109.834 50.5391 110.74 50.5713 111.511 50.6356C111.061 50.0442 110.541 49.2985 109.949 48.3921C109.358 47.4857 108.786 46.6436 108.246 45.8529L102.48 37.1297L87.386 59.0116H75.6094L96.2249 29.1972C96.8999 28.2459 97.7484 27.3909 98.7705 26.6324C99.7926 25.8738 101.091 25.501 102.666 25.501C104.241 25.501 105.43 25.8545 106.439 26.5616C107.449 27.2688 108.304 28.1494 109.011 29.1972L129.099 59.0116H91.7058V59.0181Z" fill="white"/>
<path d="M167.495 50.5456L161.054 59.0245H132.647V26.0474H142.598V50.5391H167.495V50.5456Z" fill="white"/>
<path d="M205.659 50.5456L199.218 59.0245H170.812V26.0474H180.763V50.5391H205.659V50.5456Z" fill="white"/>
<path d="M219.069 59.018H209.118V26.0474H219.069V59.018Z" fill="white"/>
<path d="M308.898 59.5645C308.255 59.5645 307.625 59.4552 307.002 59.243C306.378 59.0309 305.678 58.5424 304.913 57.7903L285.21 39.6561V59.0245H276.172V31.6657C276.172 30.5793 276.326 29.6472 276.628 28.8565C276.93 28.0659 277.335 27.4295 277.83 26.9345C278.325 26.4395 278.904 26.0795 279.56 25.8481C280.215 25.6167 280.897 25.501 281.604 25.501C282.214 25.501 282.832 25.6103 283.455 25.8224C284.079 26.0345 284.792 26.5231 285.596 27.2752L305.298 45.4094V26.041H314.382V53.3419C314.382 54.4283 314.227 55.3604 313.925 56.151C313.623 56.9417 313.218 57.591 312.723 58.0988C312.228 58.6066 311.643 58.9795 310.968 59.2045C310.293 59.4359 309.605 59.5516 308.905 59.5516L308.898 59.5645Z" fill="white"/>
<path d="M124.965 9.30791C126.058 10.3622 126.598 11.6607 126.598 13.197C126.598 13.9298 126.457 14.6305 126.168 15.2862C125.878 15.9483 125.493 16.5269 125.004 17.0154C124.515 17.504 123.937 17.8961 123.275 18.1854C122.613 18.4746 121.918 18.6161 121.186 18.6161H111.1V-0.000244141H121.186C121.899 -0.000244141 122.593 0.141178 123.262 0.430451C123.93 0.719724 124.515 1.10542 125.004 1.59397C125.493 2.08895 125.885 2.66107 126.168 3.32318C126.45 3.98529 126.598 4.67955 126.598 5.41237C126.598 6.92945 126.052 8.22796 124.965 9.30148V9.30791ZM121.186 3.11105H114.185V7.77798H121.186C121.488 7.77798 121.783 7.7137 122.073 7.59156C122.356 7.46942 122.606 7.29586 122.825 7.08373C123.043 6.87159 123.204 6.62089 123.32 6.33162C123.435 6.04877 123.493 5.74021 123.493 5.4188C123.493 5.11667 123.435 4.82097 123.32 4.5317C123.204 4.24242 123.037 3.99815 122.825 3.77959C122.613 3.56103 122.362 3.40032 122.073 3.28461C121.783 3.1689 121.494 3.11105 121.186 3.11105ZM121.186 15.4984C121.488 15.4984 121.783 15.4405 122.073 15.3248C122.356 15.2091 122.606 15.0419 122.825 14.8298C123.043 14.6177 123.204 14.367 123.32 14.0777C123.435 13.7949 123.493 13.4992 123.493 13.1906C123.493 12.882 123.435 12.5928 123.32 12.3035C123.204 12.0206 123.043 11.7699 122.838 11.5514C122.632 11.3328 122.388 11.1657 122.098 11.0435C121.816 10.9214 121.507 10.8571 121.186 10.8571H114.185V15.4984H121.186Z" fill="white"/>
<path d="M131.966 -0.000244141H135.051V15.4984H144.36V18.6096H131.972V-0.000244141H131.966Z" fill="white"/>
<path d="M163.311 15.4984H154.755L153.173 18.6096H149.715L159.023 -0.000244141L168.331 18.6096H164.873L163.317 15.4984H163.311ZM156.285 12.4128H161.755L159.017 6.9423L156.278 12.4128H156.285Z" fill="white"/>
<path d="M179.426 -0.000163513C180.711 -0.000163513 181.913 0.244111 183.032 0.726233C184.15 1.20835 185.14 1.8769 185.995 2.73829L183.797 4.93676C182.582 3.72181 181.123 3.11113 179.426 3.11113C178.564 3.11113 177.761 3.27183 177.015 3.59325C176.263 3.91466 175.607 4.35821 175.042 4.91747C174.476 5.48316 174.032 6.13885 173.698 6.89096C173.364 7.64307 173.203 8.4466 173.203 9.30156C173.203 10.1565 173.37 10.9665 173.698 11.7186C174.026 12.4707 174.469 13.1264 175.022 13.6921C175.575 14.2578 176.231 14.6949 176.996 15.0163C177.754 15.3377 178.564 15.4984 179.426 15.4984C181.103 15.4984 182.563 14.9006 183.797 13.6985L185.995 15.8713C185.134 16.7327 184.15 17.4012 183.032 17.8833C181.913 18.3654 180.711 18.6097 179.426 18.6097C178.14 18.6097 176.931 18.3654 175.807 17.8705C174.682 17.3819 173.692 16.7134 172.843 15.8713C171.995 15.0292 171.326 14.0456 170.831 12.9207C170.336 11.7957 170.092 10.5872 170.092 9.30156C170.092 8.01591 170.336 6.85882 170.831 5.72101C171.32 4.5832 171.995 3.59325 172.843 2.74471C173.692 1.89618 174.682 1.22764 175.807 0.732661C176.931 0.244111 178.14 -0.0065918 179.426 -0.0065918V-0.000163513Z" fill="white"/>
<path d="M197.56 9.30791L206.868 18.6161H202.497L194.449 10.6257V18.6161H191.363V-0.000244141H194.449V8.01583L202.497 -0.000244141H206.868L197.56 9.30791Z" fill="white"/>
<path d="M71.4116 75.6799C71.823 78.0005 72.8065 79.7683 74.87 79.659V79.794C72.3694 80.5461 69.8945 79.1897 69.2131 75.6799L68.551 71.7779L66.0311 76.1556C66.0311 76.1556 65.5297 76.9848 65.5169 77.6341H65.3883L62.0584 71.3022L61.4028 76.6698C61.3642 76.972 61.6535 77.242 61.9235 77.242H62.1292V77.3705H59.3264V77.2355H59.5386C60.0014 77.2355 60.4128 76.9463 60.5092 76.4513L61.422 70.068C60.7471 68.8595 59.5128 67.0981 58.0472 67.2331L58.0215 67.0981C60.4707 66.0632 62.3284 67.7345 63.3312 69.4637L66.0054 74.4907L69.8881 67.8052H70.0102L71.4116 75.6799Z" fill="white"/>
<path d="M90.1309 76.4577C90.4202 77.0041 90.8766 77.2355 91.2752 77.2355H91.3845V77.3705H87.1161V77.2355H87.2318C87.5789 77.2355 87.9517 76.9334 87.7525 76.3934L87.0904 74.7349H83.9469L83.2591 76.3934C83.0405 76.927 83.4262 77.2355 83.7734 77.2355H83.8891V77.3705H81.0156V77.2355H81.1378C81.517 77.2355 81.9799 77.0106 82.2627 76.4834L85.3611 69.4766C85.4576 69.2709 85.9847 68.1138 86.0233 67.7217H86.1454L90.1309 76.4641V76.4577ZM86.8654 74.1757L85.554 70.8844L84.1783 74.1757H86.8654Z" fill="white"/>
<path d="M105.308 67.9918C106.935 67.9918 108.497 68.6539 108.497 70.5181C108.497 71.643 107.822 72.9158 106.305 73.0637C106.87 73.2501 107.372 73.7837 107.674 74.2529C107.712 74.3172 108.516 75.59 109.024 76.22C109.602 76.9528 109.981 77.2228 110.682 77.2357V77.3706H109.377C107.912 77.3706 106.889 77.0235 106.227 75.9821C105.874 75.4164 105.257 74.0858 105.109 73.6872C104.858 73.1215 104.55 72.8451 104.202 72.7809V72.6523H104.614C105.334 72.6459 106.067 72.2794 106.305 71.1031C106.337 70.9424 106.369 70.7238 106.356 70.4538C106.305 69.1746 105.655 68.596 104.775 68.5768C104.421 68.5639 103.926 68.5768 103.759 68.5768V76.3935C103.765 76.8628 104.151 77.2357 104.62 77.2357H104.787V77.3706H100.712V77.2357H100.885C101.355 77.2357 101.734 76.8628 101.74 76.4V68.9624C101.734 68.4932 101.348 68.1203 100.885 68.1203H100.712V67.9854H105.308V67.9918Z" fill="white"/>
<path d="M122.665 76.3935C122.671 76.8628 123.057 77.2357 123.526 77.2357H123.693V77.3706H119.624V77.2357H119.798C120.267 77.2357 120.646 76.8628 120.659 76.3935V68.956C120.646 68.4932 120.267 68.1203 119.804 68.1203H119.63V67.9854H123.7V68.1203H123.526C123.057 68.1203 122.684 68.4932 122.665 68.956V76.3935ZM128.109 76.4064C128.514 76.9464 128.932 77.2228 129.479 77.2357V77.3706H128.373C127.994 77.3706 126.367 77.3964 125.493 76.2586C125.236 75.9114 123.095 72.9673 123.095 72.948L126.277 68.7439C126.502 68.4418 126.329 68.1075 125.956 68.1075H125.827V67.9918H128.9V68.1139H128.842C128.257 68.1139 127.724 68.371 127.383 68.7632L124.78 71.8552L128.109 76.4064Z" fill="white"/>
<path d="M146.43 74.6387L145.813 77.3707H138.877V77.2357H139.051C139.52 77.2357 139.899 76.8629 139.912 76.3936V68.9239C139.88 68.474 139.507 68.1268 139.057 68.1268H138.89V67.9918H144.026C144.605 67.9918 145.376 67.8504 145.627 67.7476V70.0939H145.492V69.9332C145.492 69.1232 144.984 68.5961 144.18 68.564H141.924V72.4659H143.698C144.354 72.4531 144.836 71.9709 144.836 71.3153V71.1995H144.965V74.298H144.836V74.1823C144.836 73.533 144.367 73.0573 143.717 73.0316H141.924V76.805H143.685C145.022 76.805 145.89 75.9758 146.308 74.6451H146.443L146.43 74.6387Z" fill="white"/>
<path d="M163.477 67.9789C164.056 67.9725 164.821 67.8375 165.065 67.7346V70.0681H164.93V69.9074C164.93 69.091 164.409 68.5574 163.587 68.5382H161.787V76.3999C161.8 76.8628 162.179 77.2292 162.648 77.2292H162.815V77.3642H158.746V77.2292H158.92C159.383 77.2292 159.755 76.8628 159.775 76.4064V68.5317H157.158C155.699 68.5317 154.844 69.6502 155.673 71.0452L155.538 71.1095C154.144 69.7531 155.133 67.966 157.158 67.966H163.477V67.9789Z" fill="white"/>
<path d="M179.433 67.9918C181.728 67.9918 182.718 69.0974 182.763 70.5567C182.846 72.8708 180.371 74.1565 178.456 72.903V72.7744C178.456 72.7744 180.069 72.9351 180.532 71.2445C180.596 71.0066 180.628 70.6917 180.615 70.441C180.577 69.2967 179.966 68.551 178.893 68.551H177.999V76.3935C178.006 76.8628 178.391 77.2357 178.854 77.2357H179.021V77.3706H174.952V77.2357H175.126C175.595 77.2357 175.974 76.8628 175.987 76.3935V68.8917C175.942 68.461 175.576 68.1203 175.132 68.1203H174.965V67.9854H179.433V67.9918Z" fill="white"/>
<path d="M200.344 74.6386L199.727 77.3706H192.791V77.2357H192.965C193.434 77.2357 193.813 76.8564 193.826 76.3935V68.9624C193.82 68.4932 193.434 68.1203 192.965 68.1203H192.797V67.9854H196.867V68.1203H196.693C196.224 68.1203 195.844 68.4932 195.832 68.9624V76.7921H197.593C198.93 76.7921 199.798 75.9629 200.216 74.6322H200.351L200.344 74.6386Z" fill="white"/>
<path d="M218.336 76.4577C218.625 77.0041 219.082 77.2355 219.48 77.2355H219.59V77.3705H215.321V77.2355H215.437C215.784 77.2355 216.157 76.9334 215.958 76.3934L215.295 74.7349H212.152L211.464 76.3934C211.246 76.927 211.631 77.2355 211.978 77.2355H212.094V77.3705H209.221V77.2355H209.343C209.722 77.2355 210.185 77.0106 210.468 76.4834L213.566 69.4766C213.663 69.2709 214.19 68.1138 214.228 67.7217H214.35L218.336 76.4641V76.4577ZM215.07 74.1757L213.759 70.8844L212.383 74.1757H215.07Z" fill="white"/>
<path d="M237.557 73.4623L237.686 75.7701C237.088 76.76 235.944 77.5636 233.919 77.5636C230.628 77.5507 228.48 75.7315 228.48 72.6716C228.48 69.6118 230.55 67.8054 233.957 67.8054C235.384 67.8054 236.529 68.1397 237.287 68.5318L237.313 70.8331H237.204C236.715 69.0718 235.564 68.3711 234.092 68.3711C231.965 68.3711 230.666 70.0103 230.666 72.6395C230.666 75.2687 231.92 76.9464 233.919 76.9979C235.982 76.9979 237.024 76.0979 237.441 73.4623H237.551H237.557Z" fill="white"/>
<path d="M255.537 74.6384L254.92 77.3705H247.983V77.2355H248.157C248.626 77.2355 249.006 76.8626 249.018 76.3934V68.9237C248.986 68.4737 248.613 68.1266 248.163 68.1266H247.996V67.9916H253.132C253.711 67.9916 254.482 67.8502 254.733 67.7473V70.0936H254.598V69.9329C254.598 69.123 254.09 68.5959 253.287 68.5637H251.03V72.4657H252.805C253.46 72.4528 253.942 71.9707 253.942 71.315V71.1993H254.071V74.2977H253.942V74.182C253.942 73.5328 253.473 73.0571 252.824 73.0314H251.03V76.8048H252.792C254.129 76.8048 254.997 75.9755 255.414 74.6449H255.55L255.537 74.6384Z" fill="white"/>
<path d="M247.617 63.7684C261.158 63.7684 272.135 52.7915 272.135 39.2509C272.135 25.7102 261.158 14.7334 247.617 14.7334C234.076 14.7334 223.1 25.7102 223.1 39.2509C223.1 52.7915 234.076 63.7684 247.617 63.7684Z" fill="white"/>
<path d="M268.245 49.2146C262.749 60.5927 249.025 65.3753 237.653 59.8856C226.275 54.3894 221.492 40.665 226.982 29.2934C232.472 17.9217 246.203 13.1327 257.574 18.6224C268.952 24.1186 273.735 37.843 268.245 49.2146ZM266.259 48.2568C271.222 37.978 266.902 25.5778 256.617 20.6152C246.338 15.6525 233.938 19.9724 228.975 30.2576C224.012 40.5364 228.332 52.9366 238.617 57.8992C248.896 62.8619 261.296 58.5421 266.259 48.2568Z" fill="black"/>
<path d="M231.38 26.2528C231.695 25.9057 232.035 25.5843 232.395 25.2886C233.623 24.2729 234.195 22.4087 234.362 20.7695C234.574 20.5959 234.793 20.4288 235.012 20.2681C235.5 20.3709 236.008 20.4288 236.535 20.4673C238.444 20.6023 240.347 20.7245 242.256 20.8723C240.193 21.438 238.29 22.4344 236.548 23.8229C236.214 24.0865 235.899 24.3822 235.571 24.665C240.816 23.0258 245.907 23.3665 250.947 25.8028C250.574 25.8607 250.266 25.8928 249.97 25.9571C248.916 26.1757 247.945 26.6514 246.975 27.1206C246.84 27.1849 246.66 27.217 246.518 27.1785C243.593 26.3749 240.636 26.3107 237.679 26.8699C234.259 27.5192 231.084 28.8627 228.185 30.9454C227.87 31.1704 227.555 31.4083 227.201 31.6654C227.227 31.569 227.233 31.5304 227.246 31.4854C227.323 31.2411 227.4 30.9969 227.484 30.759C227.767 30.6433 228.037 30.5148 228.281 30.3669C229.695 29.5248 229.02 27.6285 229.528 25.9635C229.547 25.9314 231.36 26.2785 231.38 26.2528Z" fill="black"/>
<path d="M226.288 36.853C226.295 36.6859 226.359 36.5059 226.443 36.3645C227.703 34.3267 229.278 32.6232 231.18 31.2669C233.771 29.4219 236.625 28.3934 239.717 28.0784C242.353 27.8084 244.93 28.1106 247.47 28.9077C247.617 28.9527 247.836 28.8884 247.977 28.7984C249.816 27.6027 251.802 26.8956 253.956 26.8056C254.554 26.7799 255.158 26.8635 255.756 26.8956C253.699 28.1234 252.394 29.7691 251.989 31.7297C252.162 31.8904 252.349 32.0447 252.516 32.2118C253.924 33.5617 255.164 35.0467 255.788 36.9945C256.09 37.9458 256.437 38.8651 256.964 39.6943C257.279 40.1957 257.646 40.665 257.993 41.1664C257.941 41.1664 257.909 41.1664 257.877 41.1664C257.221 41.0571 256.803 40.5622 256.418 40.0543C255.794 39.2508 255.209 38.4087 254.579 37.6051C254.2 37.1166 253.763 36.6923 253.191 36.4673C252.799 36.3131 252.406 36.2745 252.027 36.4673C252.953 37.4059 253.879 38.3123 254.779 39.2508C256.334 40.8836 257.819 42.5935 259.06 44.522C259.471 45.1584 259.857 45.8012 260.114 46.5212C259.979 47.209 259.831 47.8968 259.658 48.5782C259.6 48.8032 259.535 49.0282 259.471 49.2532C259.394 49.2918 259.317 49.3239 259.233 49.356C259.098 49.401 258.963 49.5103 258.88 49.6325C258.423 50.301 257.877 50.841 257.125 51.0917C256.707 51.2331 256.27 51.2652 255.897 51.0017C255.672 50.841 255.524 50.5453 255.344 50.3139C253.358 47.7747 251.012 45.7691 247.984 44.6827C250.054 44.0141 252.117 43.5642 254.271 43.6092C253.294 43.307 252.297 43.1656 251.282 43.1527C249.636 43.1335 248.035 43.4934 246.435 43.847C246.01 43.937 245.573 43.9884 245.149 43.9949C243.947 44.0077 242.822 43.7634 241.916 42.8313C240.72 41.5971 240.051 40.0993 239.929 38.3251C239.871 37.4444 239.968 36.583 240.199 35.7345C238.419 38.5115 237.621 41.5842 237.872 44.9334C238.116 48.1475 240.103 52.7695 241.536 53.5923C239.91 50.571 239.569 47.4018 240.585 43.9884C240.72 44.3227 240.823 44.567 240.919 44.8177C241.819 47.164 242.88 49.4203 244.3 51.4581C245.599 53.3223 252.124 58.2721 254.104 59.3006C254.181 59.3392 252.651 63.8068 250.086 60.1363C249.269 61.2805 247.219 59.4613 247.065 60.9784C244.088 61.1841 241.993 59.7506 239.216 58.5613C238.007 58.0407 236.818 57.4878 235.86 56.485C234.234 54.7815 233.276 52.6923 232.691 50.391C232.08 48.0061 231.945 45.5762 232.235 43.1206C232.537 40.575 233.269 38.1901 234.626 36.0495C234.979 35.4967 235.384 34.9824 235.764 34.4489C230.852 37.4251 228.603 42.0535 228.435 48.064C228.262 47.659 228.127 47.344 227.998 47.0354C226.674 43.7891 226.083 40.4014 226.282 36.8595L226.288 36.853Z" fill="black"/>
<path d="M288.457 14.3477C288.952 14.8233 289.196 15.4083 289.196 16.1026C289.196 16.4368 289.132 16.7518 289.003 17.0475C288.875 17.3432 288.701 17.6068 288.476 17.8318C288.251 18.0568 287.994 18.2303 287.692 18.3589C287.396 18.4875 287.081 18.5518 286.747 18.5518H282.189V10.1436H286.747C287.069 10.1436 287.384 10.2078 287.686 10.3364C287.988 10.465 288.251 10.6385 288.47 10.8635C288.695 11.0885 288.868 11.3456 288.997 11.6478C289.126 11.9435 289.19 12.2585 289.19 12.5927C289.19 13.2806 288.946 13.8655 288.451 14.3477H288.457ZM286.747 11.5513H283.584V13.6598H286.747C286.882 13.6598 287.017 13.6341 287.146 13.5763C287.274 13.5184 287.39 13.4413 287.486 13.3448C287.583 13.2484 287.66 13.1327 287.711 13.0041C287.763 12.8756 287.788 12.7342 287.788 12.5927C287.788 12.4577 287.763 12.3227 287.711 12.1942C287.66 12.0656 287.583 11.9499 287.486 11.8535C287.39 11.7571 287.274 11.6799 287.146 11.6285C287.017 11.5771 286.882 11.5513 286.747 11.5513ZM286.747 17.1504C286.882 17.1504 287.017 17.1247 287.146 17.0732C287.274 17.0218 287.39 16.9447 287.486 16.8483C287.583 16.7518 287.66 16.6361 287.711 16.5076C287.763 16.379 287.788 16.244 287.788 16.109C287.788 15.974 287.763 15.839 287.711 15.7104C287.66 15.5819 287.589 15.4662 287.493 15.3697C287.396 15.2733 287.287 15.1962 287.159 15.1383C287.03 15.0805 286.895 15.0548 286.747 15.0548H283.584V17.1504H286.747Z" fill="white"/>
<path d="M297.212 10.1436V11.5513H293.008V13.6598H297.212V15.0548H293.008V17.1504H297.212V18.5582H291.613V10.1436H297.212Z" fill="white"/>
<path d="M299.636 10.1436H306.649V11.5513H303.853V18.5518H302.445V11.5513H299.636V10.1436Z" fill="white"/>
<path d="M312.319 17.144H308.455L307.742 18.5518H306.18L310.384 10.1436L314.588 18.5518H313.026L312.325 17.144H312.319ZM309.143 15.749H311.612L310.377 13.2806L309.143 15.749Z" fill="white"/>
</g>
<defs>
<clipPath id="clip0_83_12">
<rect width="314.587" height="80" fill="white"/>
</clipPath>
</defs>
</svg>
